<?xml version="1.0" encoding="UTF-8" standalone="no"?> <!-- Created with Vectornator for iOS (http://vectornator.io/) --><!DOCTYPE svg PUBLIC "-//W3C//DTD SVG 1.1//EN" "http://www.w3.org/Graphics/SVG/1.1/DTD/svg11.dtd">
<svg height="100%" style="fill-rule:nonzero;clip-rule:evenodd;stroke-linecap:round;stroke-linejoin:round;" xmlns:xlink="http://www.w3.org/1999/xlink" xmlns="http://www.w3.org/2000/svg" xml:space="preserve" width="100%" xmlns:vectornator="http://vectornator.io" version="1.1" viewBox="0 0 375 133">
<metadata>
<vectornator:setting key="DimensionsVisible" value="1"/>
<vectornator:setting key="PencilOnly" value="0"/>
<vectornator:setting key="SnapToPoints" value="0"/>
<vectornator:setting key="OutlineMode" value="0"/>
<vectornator:setting key="CMYKEnabledKey" value="0"/>
<vectornator:setting key="RulersVisible" value="1"/>
<vectornator:setting key="SnapToEdges" value="0"/>
<vectornator:setting key="GuidesVisible" value="1"/>
<vectornator:setting key="DisplayWhiteBackground" value="0"/>
<vectornator:setting key="doHistoryDisabled" value="0"/>
<vectornator:setting key="SnapToGuides" value="1"/>
<vectornator:setting key="TimeLapseWatermarkDisabled" value="0"/>
<vectornator:setting key="Units" value="Pixels"/>
<vectornator:setting key="DynamicGuides" value="0"/>
<vectornator:setting key="IsolateActiveLayer" value="0"/>
<vectornator:setting key="SnapToGrid" value="0"/>
</metadata>
<defs/>
<g id="Layer 1" vectornator:layerName="Layer 1">
<g opacity="1">
<path d="M168.709+57.9121C166.928+57.9121+164.654+57.9062+161.889+57.8945C159.123+57.8828+156.873+57.8769+155.139+57.8769C155.139+60.0566+155.127+62.0898+155.104+63.9765C155.08+65.8633+155.068+68.0722+155.068+70.6035C155.068+74.4941+155.08+77.9629+155.104+81.0097C155.127+84.0566+155.139+86.7754+155.139+89.166L135.838+89.166C135.838+86.9629+135.85+84.5429+135.873+81.9062C135.896+79.2695+135.908+75.5957+135.908+70.8847C135.908+68.7754+135.902+66.666+135.891+64.5566C135.879+62.4472+135.861+60.2207+135.838+57.8769C133.494+57.8769+130.869+57.8828+127.963+57.8945C125.057+57.9062+123.158+57.9121+122.268+57.9121L122.268+42.0918C123.299+42.0918+126.352+42.0976+131.426+42.1094C136.5+42.1211+141.24+42.1269+145.646+42.1269C149.186+42.1269+153.48+42.1211+158.531+42.1094C163.582+42.0976+166.975+42.0918+168.709+42.0918L168.709+57.9121Z" opacity="1" fill="#000000"/>
<path d="M201.861+77.6347L200.35+89.5879C199.764+89.6347+199.002+89.6699+198.064+89.6933C197.127+89.7168+195.521+89.7285+193.248+89.7285C186.428+89.7285+181.277+88.5332+177.797+86.1426C174.316+83.7519+172.576+80.3066+172.576+75.8066C172.576+72.8769+172.588+70.6797+172.611+69.2148C172.635+67.75+172.646+66.4082+172.646+65.1894L166.846+65.1894L166.846+52.8847L172.857+52.8847L172.857+42.0918L190.189+42.0918L190.189+52.8847L201.545+52.8847L201.545+65.1894L190.189+65.1894C190.189+65.7519+190.184+66.209+190.172+66.5605C190.16+66.9121+190.154+67.4511+190.154+68.1777C190.154+68.6699+190.16+69.2617+190.172+69.9531C190.184+70.6445+190.189+71.1191+190.189+71.3769C190.189+73.2754+190.764+74.7929+191.912+75.9297C193.061+77.0664+195.85+77.6347+200.279+77.6347C200.725+77.6347+201.053+77.6347+201.264+77.6347C201.475+77.6347+201.674+77.6347+201.861+77.6347Z" opacity="1" fill="#000000"/>
<path d="M249.885+64.416C249.885+66.3144+249.879+68.3183+249.867+70.4277C249.855+72.5371+249.85+74.4707+249.85+76.2285C249.85+78.2676+249.855+79.9551+249.867+81.291C249.879+82.6269+249.885+85.2285+249.885+89.0957C249.486+89.2129+247.928+89.3418+245.209+89.4824C242.49+89.623+240.369+89.6933+238.846+89.6933C233.924+89.6933+229.383+89.207+225.223+88.2344C221.062+87.2617+216.908+85.4746+212.76+82.873C209.807+80.9746+207.451+78.5722+205.693+75.666C203.936+72.7597+203.057+69.4433+203.057+65.7168C203.057+62.1777+203.859+59.0019+205.465+56.1894C207.07+53.3769+209.49+50.8808+212.725+48.7011C216.006+46.4746+220.037+44.7402+224.818+43.498C229.6+42.2558+235.178+41.6347+241.553+41.6347C242.162+41.6347+242.689+41.6406+243.135+41.6523C243.58+41.664+244.061+41.6699+244.576+41.6699L247.002+57.5957C246.58+57.5957+246.094+57.5957+245.543+57.5957C244.992+57.5957+244.354+57.5957+243.627+57.5957C242.736+57.5957+241.125+57.6543+238.793+57.7715C236.461+57.8886+234.252+58.2051+232.166+58.7207C229.283+59.4004+227.01+60.4961+225.346+62.0078C223.682+63.5195+222.85+65.2832+222.85+67.2988C222.85+68.9629+223.236+70.4101+224.01+71.6406C224.783+72.8711+225.721+73.8379+226.822+74.541C227.268+74.8457+227.93+75.1855+228.809+75.5605C229.688+75.9355+230.596+76.2168+231.533+76.4043C231.533+75.8886+231.533+74.6347+231.533+72.6426C231.533+70.6504+231.51+67.9082+231.463+64.416L249.885+64.416Z" opacity="1" fill="#000000"/>
</g>
</g>
</svg>
